<?xml version="1.0" encoding="UTF-8"?><svg id="Lager_1" xmlns="http://www.w3.org/2000/svg" viewBox="0 0 949.16 172.7"><defs><style>.cls-1{fill:#f7f8f7;}</style></defs><path class="cls-1" d="M314.84,86.4v-.9s12.63-8.12,12.63-27.07c0-20.76-14.44-35.19-36.09-35.19h-58.65v126.33h60.46c21.66,0,36.09-14.44,36.09-35.19s-14.44-27.97-14.44-27.97ZM256.19,43.99h32.48c9.02,0,15.34,6.32,15.34,16.24,0,9.02-6.32,15.34-15.34,15.34h-32.48v-31.58ZM290.48,128.81h-34.29v-32.49h34.29c8.12,0,15.34,7.22,15.34,16.24s-7.22,16.24-15.34,16.24Z"/><polygon class="cls-1" points="336.49 23.24 336.49 149.56 359.05 149.56 359.05 31.62 359.05 23.24 350.25 23.24 336.49 23.24"/><path class="cls-1" d="M438.45,66.55h-.9s-7.22-10.83-26.17-10.83c-24.36,0-43.31,18.95-43.31,47.82s18.95,47.83,43.31,47.83c18.95,0,26.17-10.83,26.17-10.83h.9l1.81,9.02h19.85V57.53h-19.85l-1.81,9.02ZM414.09,130.61c-13.54,0-23.46-9.93-23.46-27.07s9.92-27.07,23.46-27.07,23.46,9.93,23.46,27.07-9.92,27.07-23.46,27.07Z"/><path class="cls-1" d="M515.15,76.47c13.54,0,18.95,9.02,20.76,14.44h22.55c-2.7-13.53-14.43-35.19-43.31-35.19-27.07,0-46.92,19.85-46.92,47.82s19.85,47.83,46.92,47.83c28.87,0,40.61-21.66,43.31-36.09h-22.55c-1.81,6.32-7.22,15.34-20.76,15.34s-24.36-10.83-24.36-27.07,10.83-27.07,24.36-27.07Z"/><polygon class="cls-1" points="763.29 57.53 747.95 117.98 744.34 117.98 729 57.53 703.74 57.53 688.4 117.98 684.79 117.98 669.45 57.53 649.59 57.53 645.99 57.53 623.43 57.53 589.13 99.03 589.13 23.24 566.58 23.24 566.58 149.56 589.13 149.56 589.13 106.25 625.23 149.56 651.4 149.56 611.7 102.64 646.83 60.82 669.45 149.56 699.22 149.56 714.56 90.01 718.17 90.01 733.51 149.56 763.29 149.56 786.75 57.53 763.29 57.53"/><path class="cls-1" d="M854.42,66.55h-.9s-7.22-10.83-26.17-10.83c-24.37,0-43.31,18.95-43.31,47.82s18.94,47.83,43.31,47.83c18.94,0,26.17-10.83,26.17-10.83h.9l1.81,9.02h19.85V57.53h-19.85l-1.81,9.02ZM830.06,130.61c-13.54,0-23.47-9.93-23.47-27.07s9.92-27.07,23.47-27.07,23.46,9.93,23.46,27.07-9.92,27.07-23.46,27.07Z"/><rect class="cls-1" x="889.6" y="23.24" width="22.56" height="126.33"/><rect class="cls-1" x="926.6" y="23.24" width="22.56" height="126.33"/><polygon class="cls-1" points="142.89 172.7 165.42 150.18 165.42 22.53 142.89 0 142.89 172.7"/><polygon class="cls-1" points="82.82 172.7 120.36 150.18 120.36 22.53 82.82 0 82.82 172.7"/><polygon class="cls-1" points=".22 172.7 60.29 150.18 60.29 22.53 .22 0 .22 172.7"/></svg>
